<svg width="1920" height="596" viewBox="0 0 1920 596" fill="none" xmlns="http://www.w3.org/2000/svg">
<path d="M17.0822 208.595C10.0478 186.424 90.2767 141.186 196.278 107.553C302.28 73.9205 393.914 64.6284 400.948 86.7989C407.983 108.969 315.624 115.975 209.622 149.608C103.62 183.241 24.1166 230.765 17.0822 208.595Z" fill="#F6B501"/>
<path d="M1668.37 20.1062C1673.43 -2.5961 1746.31 -5.66589 1831.15 13.2496C1915.98 32.1652 1980.65 65.9031 1975.59 88.6054C1970.53 111.308 1906.38 75.2287 1821.54 56.3132C1736.71 37.3977 1663.31 42.8085 1668.37 20.1062Z" fill="#F6B501"/>
<ellipse cx="961.423" cy="310.46" rx="1097.5" ry="271" transform="rotate(-4.83073 961.423 310.46)" fill="#F6B501"/>
</svg>
