<svg width="1533" height="743" viewBox="0 0 1533 743" fill="none" xmlns="http://www.w3.org/2000/svg">
<ellipse cx="766.386" cy="262.302" rx="786" ry="392.892" transform="rotate(-15 766.386 262.302)" fill="white"/>
<path d="M379.493 723.878C373.908 746.457 303.033 748.35 221.19 728.105C139.347 707.861 77.5276 673.145 83.1127 650.566C88.6978 627.987 149.941 665.031 231.785 685.275C313.628 705.519 385.078 701.298 379.493 723.878Z" fill="white"/>
<path d="M1521.6 293.216C1536.86 310.773 1497.63 369.836 1433.99 425.136C1370.35 480.435 1306.4 511.032 1291.14 493.474C1275.88 475.917 1341.41 447.131 1405.05 391.831C1468.69 336.532 1506.34 275.659 1521.6 293.216Z" fill="white"/>
</svg>