<svg width="345" height="188" viewBox="0 0 345 188" fill="none" xmlns="http://www.w3.org/2000/svg">
<path d="M149.76 53.2988C135.478 52.82 123.27 66.9425 120.877 84.7352C119.919 91.517 120.478 97.8203 122.313 103.166C119.919 105.799 117.127 107.874 114.334 107.874C105.956 108.033 102.206 93.2724 101.249 88.6447C111.701 80.7457 121.435 69.9743 116.807 61.5169C114.334 57.1285 107.791 54.0967 106.914 56.6497C106.435 58.0062 106.275 66.8627 99.4136 78.0329C96.3815 82.9798 92.3923 86.8096 88.9613 88.884C90.7167 78.5117 92.2327 69.0169 92.1529 67.0222C91.7539 58.4051 79.4667 57.2881 79.4667 57.2881C77.8709 57.2881 77.5518 57.6871 77.3123 59.602C73.1635 93.7512 68.4558 107.874 68.6156 112.102C68.6954 115.055 74.9986 122.634 81.222 122.156C82.7379 122.076 83.1369 121.597 83.456 119.523C83.8551 117.368 85.6102 107.794 87.4455 97.3417C87.9241 97.1023 88.4827 96.7831 89.0411 96.5438C89.839 100.932 94.0678 120.48 107.073 120.241C114.254 120.161 120.478 114.257 124.866 108.352C128.377 113.937 133.882 117.528 141.063 117.767C155.983 118.246 167.552 104.124 169.946 86.331C172.26 68.5383 164.042 53.7774 149.76 53.2988ZM153.51 82.2617C151.595 95.4268 146.808 107.315 141.861 109.39C136.914 111.384 135.238 102.049 137.153 88.964C139.068 75.7989 144.095 63.8306 148.802 61.836C153.589 59.8413 155.425 69.0967 153.51 82.2617ZM48.828 74.5222C46.1952 78.3522 74.44 83.3787 72.5251 55.852C71.6474 42.2879 61.5942 32.6337 48.908 33.1124C28.0832 33.99 4.94478 59.1232 0.716018 90.2405C-3.19358 118.964 9.25332 137.076 29.5992 137.555C41.6471 137.874 55.7696 129.975 61.3547 118.725C70.69 100.134 54.2538 93.5119 53.6154 96.1449C53.2961 97.3417 52.4185 103.804 49.2271 112.023C45.3973 121.916 39.2536 127.821 33.1099 129.017C23.0567 130.932 18.1896 117.448 21.0618 93.5917C23.9344 69.735 36.8599 45.8784 48.3494 42.1284C56.6473 39.4156 61.674 45.2402 56.9665 60.4797C54.7324 67.7404 50.8229 71.7297 48.828 74.5222ZM204.175 53.0593C200.265 56.4104 197.074 61.1179 194.6 66.3041C195.239 62.3946 195.638 59.602 195.638 58.6446C195.558 56.0116 194.281 54.4955 192.606 53.1392C188.856 49.8679 182.872 49.3093 182.872 49.3093C181.276 49.3093 180.957 49.7083 180.717 51.6232C176.568 85.7724 169.068 114.177 169.148 118.406C169.228 121.358 175.531 128.938 181.755 128.459C183.271 128.379 183.67 127.9 183.989 125.826C184.308 124.23 185.824 115.932 187.739 106.039C191.01 109.948 195.638 113.459 201.622 112.98C213.271 112.023 227.473 90.6394 227.473 70.2936C227.473 57.1285 223.245 48.5911 215.025 48.5911C209.202 48.6711 205.372 51.9423 204.175 53.0593ZM197.313 103.884C193.882 103.725 191.17 101.092 189.175 97.98C189.494 96.2247 189.813 94.4693 190.132 92.714C194.202 76.9159 202.021 61.1178 208.005 62.5541C215.584 64.469 210 104.363 197.313 103.884ZM260.426 44.7614C246.144 44.2828 233.935 58.4051 231.542 76.1978C229.068 93.9905 236.728 108.751 251.649 109.23C266.568 109.709 278.138 95.5863 280.533 77.7936C282.926 60.0009 274.708 45.2402 260.426 44.7614ZM264.256 73.6445C262.341 86.8096 257.552 98.6979 252.605 100.773C247.659 102.767 245.985 93.4321 247.9 80.3468C249.815 67.1818 254.84 55.2137 259.548 53.219C264.256 51.3041 266.17 60.5595 264.256 73.6445Z" fill="#51AF27"/>
<path d="M88.7222 169.151C93.2701 165.401 96.7807 161.89 99.6531 158.938C103.563 154.949 104.6 150.081 104.041 146.252C102.765 138.113 96.0626 134.922 87.685 136.039C76.7541 137.395 70.2911 143.619 69.6529 150.72C69.0943 156.943 75.9562 160.454 76.355 159.018C76.7541 157.502 79.6264 145.534 88.4031 142.422C91.1956 141.385 93.7489 142.183 94.1477 144.736C94.7063 148.246 91.0359 152.954 79.4668 161.491C71.4083 167.475 68.9348 172.183 69.8125 178.087C70.8497 185.029 77.3124 188.38 86.7275 186.624C93.8286 185.268 102.525 181.199 103.164 173.619C103.643 168.114 97.4191 167.635 97.0998 168.991C95.9828 172.901 93.4296 179.683 85.9296 180.88C81.7008 181.438 78.5892 177.369 88.7222 169.151ZM291.064 92.5545C286.756 92.4747 282.607 94.2301 278.936 97.4217C274.708 101.172 271.676 106.916 269.361 114.337C267.924 118.805 266.888 123.273 265.851 127.821C264.336 134.762 263.138 141.065 262.421 144.895C260.265 156.624 259.069 162.528 259.15 164.763C259.228 167.076 264.255 172.981 269.202 172.582C270.398 172.502 270.639 172.103 270.957 170.507C271.037 169.949 271.276 168.752 271.515 167.156C274.069 169.709 277.501 171.864 281.809 171.624C292.181 171.146 303.112 154.39 302.714 138.752C302.473 130.374 299.841 125.906 296.728 123.831C301.277 121.358 305.107 117.369 305.585 111.065C306.144 100.932 300.399 92.714 291.064 92.5545ZM278.299 164.683C275.903 164.683 273.91 163.167 272.393 161.252C273.83 156.066 280.053 134.044 285.878 133.964C292.181 133.885 288.432 164.523 278.299 164.683ZM294.735 109.071C294.015 115.693 289.947 120.321 286.915 123.113C285.4 124.47 284.122 125.427 283.643 126.145C280.85 128.699 278.538 132.209 276.701 136.039C278.696 126.066 281.648 113.22 283.882 107.714C285.797 103.007 287.793 99.8949 289.947 99.0972C292.979 97.9801 295.452 102.289 294.735 109.071ZM129.494 133.645C118.323 133.326 108.829 144.337 106.914 158.22C104.999 172.103 110.983 183.672 122.632 183.991C134.281 184.39 143.297 173.3 145.212 159.417C147.127 145.534 140.664 133.965 129.494 133.645ZM132.446 156.225C130.93 166.518 127.18 175.853 123.27 177.449C119.361 179.045 118.084 171.704 119.6 161.491C121.116 151.199 125.026 141.784 128.776 140.268C132.526 138.752 133.962 145.933 132.446 156.225ZM328.485 118.246C317.314 117.927 307.82 128.938 305.905 142.821C303.99 156.704 309.974 168.273 321.624 168.592C333.272 168.991 342.287 157.901 344.202 144.018C346.117 130.135 339.655 118.645 328.485 118.246ZM331.437 140.906C329.92 151.199 326.171 160.534 322.26 162.13C318.352 163.725 317.074 156.385 318.591 146.172C320.106 135.879 324.017 126.464 327.766 124.948C331.515 123.353 332.952 130.613 331.437 140.906ZM241.755 124.948C230.585 124.629 221.089 135.64 219.174 149.523C218.537 154.39 218.777 159.018 219.972 162.927C217.818 165.64 215.266 167.874 212.952 167.475C210.558 167.076 210.319 164.284 210.878 160.294C211.754 153.991 212.952 149.443 213.988 142.262C215.664 130.534 208.005 126.385 202.021 128.459C195.797 130.534 191.808 136.917 189.095 144.018C189.095 142.262 188.936 140.587 188.616 139.071C187.021 130.853 181.276 128.938 177.207 130.055C171.702 131.571 167.951 137.236 165.239 143.938C165.717 141.145 166.116 138.832 166.196 137.715C166.276 135.72 165.558 134.523 164.281 133.406C161.329 130.853 156.063 130.454 156.063 130.454C154.866 130.454 154.547 130.773 154.388 132.289C151.116 159.018 147.286 170.188 147.366 173.46C147.446 175.773 152.313 181.678 157.26 181.279C158.457 181.199 158.696 180.8 159.015 179.204C159.255 177.928 160.132 173.22 161.249 167.396C163.643 159.736 170.026 140.826 175.292 140.746C177.526 140.746 177.127 143.858 176.409 149.922C175.372 157.582 173.377 165.082 172.978 167.794C172.42 172.741 176.489 176.651 180 178.406C183.43 180.162 184.468 177.13 184.707 174.975C184.787 174.098 185.585 170.507 186.462 165.72C188.537 158.06 194.361 138.991 200.026 138.752C201.702 138.672 202.18 140.427 201.702 143.778C201.622 144.337 198.43 159.497 198.111 162.289C197.712 165.72 197.632 169.47 198.989 172.023C200.665 175.215 203.218 177.289 207.526 176.97C213.43 176.491 218.298 171.624 221.728 166.917C224.441 171.864 228.91 175.055 234.893 175.215C246.541 175.614 255.559 164.523 257.474 150.64C259.389 136.837 252.925 125.347 241.755 124.948ZM244.787 147.528C243.27 157.821 239.521 167.156 235.611 168.752C231.703 170.348 230.425 163.007 231.942 152.794C233.457 142.502 237.367 133.087 241.116 131.571C244.787 130.055 246.302 137.315 244.787 147.528Z" fill="#51AF27"/>
<path d="M295.293 37.0215C298.884 10.8511 284.761 0 284.761 0C284.761 0 275.425 10.0533 273.113 27.4471C271.356 40.2929 275.425 47.1547 280.292 51.3833C285.319 36.0641 281.409 20.4257 281.409 20.4257C281.409 20.4257 290.586 32.2343 282.765 57.7663C287.634 54.7345 293.857 47.3142 295.293 37.0215ZM332.793 19.8672C326.171 18.9895 301.916 19.6278 294.654 51.9419C309.576 49.9473 323.058 33.431 323.058 33.431C323.058 33.431 321.943 50.6654 282.846 60.8782C285.08 61.6761 288.271 63.1121 296.171 64.1495C332.235 69.0165 345 24.1757 345 24.1757C345 24.1757 339.416 20.8246 332.793 19.8672Z" fill="#51AF27"/>
</svg>
