<svg width="1920" height="425" viewBox="0 0 1920 425" fill="none" xmlns="http://www.w3.org/2000/svg">
<path d="M2096.07 328.885C2088.41 419.497 1592.58 451.58 988.603 400.544C220 471 -98.793 234.679 -91.1363 144.067C-83.4797 53.4555 412.35 21.3729 1016.33 72.4091C1620.31 123.445 2103.73 238.274 2096.07 328.885Z" fill="white"/>
<path d="M-127.014 94.7185C-131.425 71.8807 -46.4827 36.2718 62.709 15.1836C171.901 -5.9045 263.994 -4.48618 268.404 18.3515C272.815 41.1893 180.267 37.416 71.0755 58.5041C-38.1162 79.5923 -122.603 117.556 -127.014 94.7185Z" fill="white"/>
<path d="M1593.71 99.3975C1603.76 61.25 1721.6 59.2424 1856.91 94.9134C1992.22 130.584 2093.76 190.426 2083.7 228.574C2073.64 266.721 1973.14 202.946 1837.84 167.275C1702.53 131.604 1583.65 137.545 1593.71 99.3975Z" fill="white"/>
</svg>
