<svg width="333" height="341" viewBox="0 0 333 341" fill="none" xmlns="http://www.w3.org/2000/svg">
<path d="M164.193 215.516C86.4926 113.094 0.530573 124.371 0.530573 124.371C0.530573 124.371 2.99101 191.104 54.8878 258.924C93.049 309.176 130.67 318.783 161.975 316.582C126.562 246.557 59.2848 206.2 59.2848 206.2C59.2848 206.2 131.512 215.248 192.456 330.033C198.782 302.84 194.668 255.882 164.193 215.516ZM234.251 27.3905C208.432 47.1685 127.134 132.86 213.34 269.062C257.841 210.832 247.416 107.581 247.416 107.581C247.416 107.581 302.886 170.729 203.441 340.465C213.879 335.52 229.805 329.478 260.573 305.85C401.467 198.453 291.099 0.196973 291.099 0.196973C291.099 0.196973 260.344 7.88681 234.251 27.3905Z" fill="#5BB931"/>
</svg>
