<svg width="1569" height="802" viewBox="0 0 1569 802" fill="none" xmlns="http://www.w3.org/2000/svg">
<ellipse cx="784.49" cy="400.74" rx="786" ry="392.892" transform="rotate(6.56089 784.49 400.74)" fill="white"/>
<path d="M131.984 599.643C121.161 609.424 83.6469 585.55 48.1937 546.32C12.7406 507.09 -7.2261 467.358 3.59693 457.577C14.42 447.796 33.2706 488.536 68.7237 527.767C104.177 566.997 142.807 589.862 131.984 599.643Z" fill="white"/>
<path d="M1326.8 113.876C1341.34 95.7191 1406.48 123.718 1472.29 176.414C1538.1 229.11 1579.67 286.547 1565.13 304.704C1550.59 322.86 1510.53 263.551 1444.71 210.855C1378.9 158.16 1312.27 132.032 1326.8 113.876Z" fill="white"/>
</svg>